<mxfile host="app.diagrams.net" modified="2023-05-02T07:11:24.620Z" agent="Mozilla/5.0 (Windows NT 10.0; Win64; x64) AppleWebKit/537.36 (KHTML, like Gecko) Chrome/110.0.0.0 YaBrowser/23.3.3.719 Yowser/2.5 Safari/537.36" etag="ebWcolzkuh1znR6LFR5R" version="21.2.3" type="device">
  <diagram id="OtYZnX7mGi9Z4rE8U8-V" name="Страница 1">
    <mxGraphModel dx="1002" dy="553" grid="1" gridSize="10" guides="1" tooltips="1" connect="1" arrows="1" fold="1" page="1" pageScale="1" pageWidth="827" pageHeight="1169" math="0" shadow="0">
      <root>
        <mxCell id="0" />
        <mxCell id="1" parent="0" />
        <mxCell id="_qsPFUIzuequWy3e2NQn-9" value="admins&lt;br style=&quot;font-size: 11px;&quot;&gt;" style="swimlane;fontStyle=1;align=center;verticalAlign=top;childLayout=stackLayout;horizontal=1;startSize=26;horizontalStack=0;resizeParent=1;resizeParentMax=0;resizeLast=0;collapsible=1;marginBottom=0;whiteSpace=wrap;html=1;fontSize=11;" parent="1" vertex="1">
          <mxGeometry x="20" y="310" width="160" height="120" as="geometry" />
        </mxCell>
        <mxCell id="_qsPFUIzuequWy3e2NQn-10" value="id: PK NN AI" style="text;align=left;verticalAlign=top;spacingLeft=4;spacingRight=4;overflow=hidden;rotatable=0;points=[[0,0.5],[1,0.5]];portConstraint=eastwest;whiteSpace=wrap;html=1;fontSize=11;" parent="_qsPFUIzuequWy3e2NQn-9" vertex="1">
          <mxGeometry y="26" width="160" height="26" as="geometry" />
        </mxCell>
        <mxCell id="_qsPFUIzuequWy3e2NQn-11" value="" style="line;strokeWidth=1;align=left;verticalAlign=middle;spacingTop=-1;spacingLeft=3;spacingRight=3;rotatable=0;labelPosition=right;points=[];portConstraint=eastwest;fontSize=11;" parent="_qsPFUIzuequWy3e2NQn-9" vertex="1">
          <mxGeometry y="52" width="160" height="8" as="geometry" />
        </mxCell>
        <mxCell id="_qsPFUIzuequWy3e2NQn-12" value="login: VARCHAR&lt;br style=&quot;font-size: 11px;&quot;&gt;" style="text;align=left;verticalAlign=top;spacingLeft=4;spacingRight=4;overflow=hidden;rotatable=0;points=[[0,0.5],[1,0.5]];portConstraint=eastwest;whiteSpace=wrap;html=1;fontSize=11;" parent="_qsPFUIzuequWy3e2NQn-9" vertex="1">
          <mxGeometry y="60" width="160" height="26" as="geometry" />
        </mxCell>
        <mxCell id="_qsPFUIzuequWy3e2NQn-13" value="" style="line;strokeWidth=1;align=left;verticalAlign=middle;spacingTop=-1;spacingLeft=3;spacingRight=3;rotatable=0;labelPosition=right;points=[];portConstraint=eastwest;fontSize=11;" parent="_qsPFUIzuequWy3e2NQn-9" vertex="1">
          <mxGeometry y="86" width="160" height="8" as="geometry" />
        </mxCell>
        <mxCell id="_qsPFUIzuequWy3e2NQn-14" value="password: NN VARCHAR" style="text;align=left;verticalAlign=top;spacingLeft=4;spacingRight=4;overflow=hidden;rotatable=0;points=[[0,0.5],[1,0.5]];portConstraint=eastwest;whiteSpace=wrap;html=1;fontSize=11;" parent="_qsPFUIzuequWy3e2NQn-9" vertex="1">
          <mxGeometry y="94" width="160" height="26" as="geometry" />
        </mxCell>
        <mxCell id="_qsPFUIzuequWy3e2NQn-24" value="personals&lt;br style=&quot;font-size: 11px;&quot;&gt;" style="swimlane;fontStyle=1;align=center;verticalAlign=top;childLayout=stackLayout;horizontal=1;startSize=26;horizontalStack=0;resizeParent=1;resizeParentMax=0;resizeLast=0;collapsible=1;marginBottom=0;whiteSpace=wrap;html=1;fontSize=11;" parent="1" vertex="1">
          <mxGeometry x="420" y="20" width="160" height="194" as="geometry" />
        </mxCell>
        <mxCell id="_qsPFUIzuequWy3e2NQn-25" value="id: PK NN AI" style="text;align=left;verticalAlign=top;spacingLeft=4;spacingRight=4;overflow=hidden;rotatable=0;points=[[0,0.5],[1,0.5]];portConstraint=eastwest;whiteSpace=wrap;html=1;fontSize=11;" parent="_qsPFUIzuequWy3e2NQn-24" vertex="1">
          <mxGeometry y="26" width="160" height="26" as="geometry" />
        </mxCell>
        <mxCell id="_qsPFUIzuequWy3e2NQn-26" value="" style="line;strokeWidth=1;align=left;verticalAlign=middle;spacingTop=-1;spacingLeft=3;spacingRight=3;rotatable=0;labelPosition=right;points=[];portConstraint=eastwest;fontSize=11;" parent="_qsPFUIzuequWy3e2NQn-24" vertex="1">
          <mxGeometry y="52" width="160" height="8" as="geometry" />
        </mxCell>
        <mxCell id="_qsPFUIzuequWy3e2NQn-27" value="login: NN VARCHAR" style="text;align=left;verticalAlign=top;spacingLeft=4;spacingRight=4;overflow=hidden;rotatable=0;points=[[0,0.5],[1,0.5]];portConstraint=eastwest;whiteSpace=wrap;html=1;fontSize=11;" parent="_qsPFUIzuequWy3e2NQn-24" vertex="1">
          <mxGeometry y="60" width="160" height="26" as="geometry" />
        </mxCell>
        <mxCell id="_qsPFUIzuequWy3e2NQn-28" value="" style="line;strokeWidth=1;align=left;verticalAlign=middle;spacingTop=-1;spacingLeft=3;spacingRight=3;rotatable=0;labelPosition=right;points=[];portConstraint=eastwest;fontSize=11;" parent="_qsPFUIzuequWy3e2NQn-24" vertex="1">
          <mxGeometry y="86" width="160" height="8" as="geometry" />
        </mxCell>
        <mxCell id="_qsPFUIzuequWy3e2NQn-29" value="&lt;font style=&quot;font-size: 11px;&quot;&gt;password: NN VARCHAR&lt;/font&gt;" style="text;align=left;verticalAlign=top;spacingLeft=4;spacingRight=4;overflow=hidden;rotatable=0;points=[[0,0.5],[1,0.5]];portConstraint=eastwest;whiteSpace=wrap;html=1;fontSize=11;" parent="_qsPFUIzuequWy3e2NQn-24" vertex="1">
          <mxGeometry y="94" width="160" height="26" as="geometry" />
        </mxCell>
        <mxCell id="_qsPFUIzuequWy3e2NQn-30" value="" style="line;strokeWidth=1;align=left;verticalAlign=middle;spacingTop=-1;spacingLeft=3;spacingRight=3;rotatable=0;labelPosition=right;points=[];portConstraint=eastwest;fontSize=11;" parent="_qsPFUIzuequWy3e2NQn-24" vertex="1">
          <mxGeometry y="120" width="160" height="8" as="geometry" />
        </mxCell>
        <mxCell id="_qsPFUIzuequWy3e2NQn-31" value="date_create: NN DATE" style="text;align=left;verticalAlign=top;spacingLeft=4;spacingRight=4;overflow=hidden;rotatable=0;points=[[0,0.5],[1,0.5]];portConstraint=eastwest;whiteSpace=wrap;html=1;fontSize=11;" parent="_qsPFUIzuequWy3e2NQn-24" vertex="1">
          <mxGeometry y="128" width="160" height="26" as="geometry" />
        </mxCell>
        <mxCell id="_qsPFUIzuequWy3e2NQn-38" value="" style="line;strokeWidth=1;rotatable=0;dashed=0;labelPosition=right;align=left;verticalAlign=middle;spacingTop=0;spacingLeft=6;points=[];portConstraint=eastwest;fontSize=11;" parent="_qsPFUIzuequWy3e2NQn-24" vertex="1">
          <mxGeometry y="154" width="160" height="10" as="geometry" />
        </mxCell>
        <mxCell id="_qsPFUIzuequWy3e2NQn-37" value="creater_admin: NN INT FK&lt;br style=&quot;font-size: 11px;&quot;&gt;" style="text;strokeColor=none;fillColor=none;spacingLeft=4;spacingRight=4;overflow=hidden;rotatable=0;points=[[0,0.5],[1,0.5]];portConstraint=eastwest;fontSize=11;whiteSpace=wrap;html=1;" parent="_qsPFUIzuequWy3e2NQn-24" vertex="1">
          <mxGeometry y="164" width="160" height="30" as="geometry" />
        </mxCell>
        <mxCell id="_qsPFUIzuequWy3e2NQn-44" value="" style="endArrow=none;html=1;rounded=0;exitX=1;exitY=0.75;exitDx=0;exitDy=0;entryX=-0.009;entryY=0.217;entryDx=0;entryDy=0;entryPerimeter=0;fontSize=11;" parent="1" source="_qsPFUIzuequWy3e2NQn-9" target="_qsPFUIzuequWy3e2NQn-29" edge="1">
          <mxGeometry width="50" height="50" relative="1" as="geometry">
            <mxPoint x="270" y="250" as="sourcePoint" />
            <mxPoint x="310" y="70" as="targetPoint" />
            <Array as="points">
              <mxPoint x="280" y="400" />
              <mxPoint x="280" y="220" />
              <mxPoint x="280" y="120" />
            </Array>
          </mxGeometry>
        </mxCell>
        <mxCell id="_qsPFUIzuequWy3e2NQn-46" value="N" style="text;html=1;align=center;verticalAlign=middle;whiteSpace=wrap;rounded=0;fontSize=11;" parent="1" vertex="1">
          <mxGeometry x="370" y="100" width="20" height="20" as="geometry" />
        </mxCell>
        <mxCell id="_qsPFUIzuequWy3e2NQn-47" value="" style="endArrow=none;html=1;rounded=0;entryX=0.5;entryY=1.045;entryDx=0;entryDy=0;entryPerimeter=0;fontSize=11;" parent="1" target="_qsPFUIzuequWy3e2NQn-37" edge="1">
          <mxGeometry width="50" height="50" relative="1" as="geometry">
            <mxPoint x="500" y="400" as="sourcePoint" />
            <mxPoint x="670" y="100" as="targetPoint" />
            <Array as="points">
              <mxPoint x="500" y="340" />
              <mxPoint x="500" y="300" />
              <mxPoint x="500" y="250" />
            </Array>
          </mxGeometry>
        </mxCell>
        <mxCell id="_qsPFUIzuequWy3e2NQn-48" value="1" style="text;html=1;align=center;verticalAlign=middle;whiteSpace=wrap;rounded=0;fontSize=11;" parent="1" vertex="1">
          <mxGeometry x="500" y="214" width="20" height="20" as="geometry" />
        </mxCell>
        <mxCell id="_qsPFUIzuequWy3e2NQn-49" value="N" style="text;html=1;align=center;verticalAlign=middle;whiteSpace=wrap;rounded=0;fontSize=11;" parent="1" vertex="1">
          <mxGeometry x="500" y="380" width="20" height="20" as="geometry" />
        </mxCell>
        <mxCell id="FE76Vu3ZwONMEtlXTHDQ-6" value="1" style="text;html=1;align=center;verticalAlign=middle;whiteSpace=wrap;rounded=0;fontSize=11;" parent="1" vertex="1">
          <mxGeometry x="180" y="380" width="20" height="20" as="geometry" />
        </mxCell>
        <mxCell id="A6NE80T4TAQlHc2OVtD5-1" value="consistent_circuit" style="swimlane;fontStyle=1;align=center;verticalAlign=top;childLayout=stackLayout;horizontal=1;startSize=26;horizontalStack=0;resizeParent=1;resizeParentMax=0;resizeLast=0;collapsible=1;marginBottom=0;whiteSpace=wrap;html=1;fontSize=11;" parent="1" vertex="1">
          <mxGeometry x="80" y="650" width="180" height="154" as="geometry" />
        </mxCell>
        <mxCell id="A6NE80T4TAQlHc2OVtD5-2" value="id: PK NN AI" style="text;align=left;verticalAlign=top;spacingLeft=4;spacingRight=4;overflow=hidden;rotatable=0;points=[[0,0.5],[1,0.5]];portConstraint=eastwest;whiteSpace=wrap;html=1;fontSize=11;" parent="A6NE80T4TAQlHc2OVtD5-1" vertex="1">
          <mxGeometry y="26" width="180" height="26" as="geometry" />
        </mxCell>
        <mxCell id="A6NE80T4TAQlHc2OVtD5-3" value="" style="line;strokeWidth=1;align=left;verticalAlign=middle;spacingTop=-1;spacingLeft=3;spacingRight=3;rotatable=0;labelPosition=right;points=[];portConstraint=eastwest;fontSize=11;" parent="A6NE80T4TAQlHc2OVtD5-1" vertex="1">
          <mxGeometry y="52" width="180" height="8" as="geometry" />
        </mxCell>
        <mxCell id="A6NE80T4TAQlHc2OVtD5-4" value="F_list_Consistent: JSON&amp;nbsp;NN" style="text;align=left;verticalAlign=top;spacingLeft=4;spacingRight=4;overflow=hidden;rotatable=0;points=[[0,0.5],[1,0.5]];portConstraint=eastwest;whiteSpace=wrap;html=1;fontSize=11;" parent="A6NE80T4TAQlHc2OVtD5-1" vertex="1">
          <mxGeometry y="60" width="180" height="26" as="geometry" />
        </mxCell>
        <mxCell id="A6NE80T4TAQlHc2OVtD5-22" value="" style="line;strokeWidth=1;align=left;verticalAlign=middle;spacingTop=-1;spacingLeft=3;spacingRight=3;rotatable=0;labelPosition=right;points=[];portConstraint=eastwest;fontSize=11;" parent="A6NE80T4TAQlHc2OVtD5-1" vertex="1">
          <mxGeometry y="86" width="180" height="8" as="geometry" />
        </mxCell>
        <mxCell id="A6NE80T4TAQlHc2OVtD5-21" value="Z_list: JSON&amp;nbsp;NN" style="text;align=left;verticalAlign=top;spacingLeft=4;spacingRight=4;overflow=hidden;rotatable=0;points=[[0,0.5],[1,0.5]];portConstraint=eastwest;whiteSpace=wrap;html=1;fontSize=11;" parent="A6NE80T4TAQlHc2OVtD5-1" vertex="1">
          <mxGeometry y="94" width="180" height="26" as="geometry" />
        </mxCell>
        <mxCell id="A6NE80T4TAQlHc2OVtD5-27" value="" style="line;strokeWidth=1;align=left;verticalAlign=middle;spacingTop=-1;spacingLeft=3;spacingRight=3;rotatable=0;labelPosition=right;points=[];portConstraint=eastwest;fontSize=11;" parent="A6NE80T4TAQlHc2OVtD5-1" vertex="1">
          <mxGeometry y="120" width="180" height="8" as="geometry" />
        </mxCell>
        <mxCell id="A6NE80T4TAQlHc2OVtD5-23" value="Phi_list: JSON&amp;nbsp;NN" style="text;align=left;verticalAlign=top;spacingLeft=4;spacingRight=4;overflow=hidden;rotatable=0;points=[[0,0.5],[1,0.5]];portConstraint=eastwest;whiteSpace=wrap;html=1;fontSize=11;" parent="A6NE80T4TAQlHc2OVtD5-1" vertex="1">
          <mxGeometry y="128" width="180" height="26" as="geometry" />
        </mxCell>
        <mxCell id="A6NE80T4TAQlHc2OVtD5-29" value="parallel_circuit" style="swimlane;fontStyle=1;align=center;verticalAlign=top;childLayout=stackLayout;horizontal=1;startSize=26;horizontalStack=0;resizeParent=1;resizeParentMax=0;resizeLast=0;collapsible=1;marginBottom=0;whiteSpace=wrap;html=1;fontSize=11;" parent="1" vertex="1">
          <mxGeometry x="690" y="600" width="160" height="188" as="geometry" />
        </mxCell>
        <mxCell id="A6NE80T4TAQlHc2OVtD5-30" value="id: PK NN AI" style="text;align=left;verticalAlign=top;spacingLeft=4;spacingRight=4;overflow=hidden;rotatable=0;points=[[0,0.5],[1,0.5]];portConstraint=eastwest;whiteSpace=wrap;html=1;fontSize=11;" parent="A6NE80T4TAQlHc2OVtD5-29" vertex="1">
          <mxGeometry y="26" width="160" height="26" as="geometry" />
        </mxCell>
        <mxCell id="A6NE80T4TAQlHc2OVtD5-31" value="" style="line;strokeWidth=1;align=left;verticalAlign=middle;spacingTop=-1;spacingLeft=3;spacingRight=3;rotatable=0;labelPosition=right;points=[];portConstraint=eastwest;fontSize=11;" parent="A6NE80T4TAQlHc2OVtD5-29" vertex="1">
          <mxGeometry y="52" width="160" height="8" as="geometry" />
        </mxCell>
        <mxCell id="A6NE80T4TAQlHc2OVtD5-44" value="F_list_Parallel: JSON&amp;nbsp;NN" style="text;align=left;verticalAlign=top;spacingLeft=4;spacingRight=4;overflow=hidden;rotatable=0;points=[[0,0.5],[1,0.5]];portConstraint=eastwest;whiteSpace=wrap;html=1;fontSize=11;" parent="A6NE80T4TAQlHc2OVtD5-29" vertex="1">
          <mxGeometry y="60" width="160" height="26" as="geometry" />
        </mxCell>
        <mxCell id="A6NE80T4TAQlHc2OVtD5-33" value="" style="line;strokeWidth=1;align=left;verticalAlign=middle;spacingTop=-1;spacingLeft=3;spacingRight=3;rotatable=0;labelPosition=right;points=[];portConstraint=eastwest;fontSize=11;" parent="A6NE80T4TAQlHc2OVtD5-29" vertex="1">
          <mxGeometry y="86" width="160" height="8" as="geometry" />
        </mxCell>
        <mxCell id="A6NE80T4TAQlHc2OVtD5-32" value="Gp_list: JSON NN" style="text;align=left;verticalAlign=top;spacingLeft=4;spacingRight=4;overflow=hidden;rotatable=0;points=[[0,0.5],[1,0.5]];portConstraint=eastwest;whiteSpace=wrap;html=1;fontSize=11;" parent="A6NE80T4TAQlHc2OVtD5-29" vertex="1">
          <mxGeometry y="94" width="160" height="26" as="geometry" />
        </mxCell>
        <mxCell id="A6NE80T4TAQlHc2OVtD5-35" value="" style="line;strokeWidth=1;align=left;verticalAlign=middle;spacingTop=-1;spacingLeft=3;spacingRight=3;rotatable=0;labelPosition=right;points=[];portConstraint=eastwest;fontSize=11;" parent="A6NE80T4TAQlHc2OVtD5-29" vertex="1">
          <mxGeometry y="120" width="160" height="8" as="geometry" />
        </mxCell>
        <mxCell id="A6NE80T4TAQlHc2OVtD5-34" value="Rp_list: JSON&amp;nbsp;NN" style="text;align=left;verticalAlign=top;spacingLeft=4;spacingRight=4;overflow=hidden;rotatable=0;points=[[0,0.5],[1,0.5]];portConstraint=eastwest;whiteSpace=wrap;html=1;fontSize=11;" parent="A6NE80T4TAQlHc2OVtD5-29" vertex="1">
          <mxGeometry y="128" width="160" height="26" as="geometry" />
        </mxCell>
        <mxCell id="A6NE80T4TAQlHc2OVtD5-43" value="" style="line;strokeWidth=1;align=left;verticalAlign=middle;spacingTop=-1;spacingLeft=3;spacingRight=3;rotatable=0;labelPosition=right;points=[];portConstraint=eastwest;fontSize=11;" parent="A6NE80T4TAQlHc2OVtD5-29" vertex="1">
          <mxGeometry y="154" width="160" height="8" as="geometry" />
        </mxCell>
        <mxCell id="A6NE80T4TAQlHc2OVtD5-36" value="Cp_list: JSON&amp;nbsp;NN" style="text;align=left;verticalAlign=top;spacingLeft=4;spacingRight=4;overflow=hidden;rotatable=0;points=[[0,0.5],[1,0.5]];portConstraint=eastwest;whiteSpace=wrap;html=1;fontSize=11;" parent="A6NE80T4TAQlHc2OVtD5-29" vertex="1">
          <mxGeometry y="162" width="160" height="26" as="geometry" />
        </mxCell>
        <mxCell id="A6NE80T4TAQlHc2OVtD5-47" value="parameters" style="swimlane;fontStyle=1;align=center;verticalAlign=top;childLayout=stackLayout;horizontal=1;startSize=26;horizontalStack=0;resizeParent=1;resizeParentMax=0;resizeLast=0;collapsible=1;marginBottom=0;whiteSpace=wrap;html=1;fontSize=11;" parent="1" vertex="1">
          <mxGeometry x="414" y="400" width="160" height="234" as="geometry" />
        </mxCell>
        <mxCell id="A6NE80T4TAQlHc2OVtD5-48" value="id: PK NN AI" style="text;align=left;verticalAlign=top;spacingLeft=4;spacingRight=4;overflow=hidden;rotatable=0;points=[[0,0.5],[1,0.5]];portConstraint=eastwest;whiteSpace=wrap;html=1;fontSize=11;" parent="A6NE80T4TAQlHc2OVtD5-47" vertex="1">
          <mxGeometry y="26" width="160" height="26" as="geometry" />
        </mxCell>
        <mxCell id="A6NE80T4TAQlHc2OVtD5-49" value="" style="line;strokeWidth=1;align=left;verticalAlign=middle;spacingTop=-1;spacingLeft=3;spacingRight=3;rotatable=0;labelPosition=right;points=[];portConstraint=eastwest;fontSize=11;" parent="A6NE80T4TAQlHc2OVtD5-47" vertex="1">
          <mxGeometry y="52" width="160" height="8" as="geometry" />
        </mxCell>
        <mxCell id="A6NE80T4TAQlHc2OVtD5-50" value="consistent_circuit_id: INT FK" style="text;align=left;verticalAlign=top;spacingLeft=4;spacingRight=4;overflow=hidden;rotatable=0;points=[[0,0.5],[1,0.5]];portConstraint=eastwest;whiteSpace=wrap;html=1;fontSize=11;" parent="A6NE80T4TAQlHc2OVtD5-47" vertex="1">
          <mxGeometry y="60" width="160" height="26" as="geometry" />
        </mxCell>
        <mxCell id="A6NE80T4TAQlHc2OVtD5-51" value="" style="line;strokeWidth=1;align=left;verticalAlign=middle;spacingTop=-1;spacingLeft=3;spacingRight=3;rotatable=0;labelPosition=right;points=[];portConstraint=eastwest;fontSize=11;" parent="A6NE80T4TAQlHc2OVtD5-47" vertex="1">
          <mxGeometry y="86" width="160" height="8" as="geometry" />
        </mxCell>
        <mxCell id="A6NE80T4TAQlHc2OVtD5-52" value="parallel_circuit_id: INT FK" style="text;align=left;verticalAlign=top;spacingLeft=4;spacingRight=4;overflow=hidden;rotatable=0;points=[[0,0.5],[1,0.5]];portConstraint=eastwest;whiteSpace=wrap;html=1;fontSize=11;" parent="A6NE80T4TAQlHc2OVtD5-47" vertex="1">
          <mxGeometry y="94" width="160" height="26" as="geometry" />
        </mxCell>
        <mxCell id="A6NE80T4TAQlHc2OVtD5-53" value="" style="line;strokeWidth=1;align=left;verticalAlign=middle;spacingTop=-1;spacingLeft=3;spacingRight=3;rotatable=0;labelPosition=right;points=[];portConstraint=eastwest;fontSize=11;" parent="A6NE80T4TAQlHc2OVtD5-47" vertex="1">
          <mxGeometry y="120" width="160" height="8" as="geometry" />
        </mxCell>
        <mxCell id="00EKu0Gm5jGO197i8THi-1" value="work_personal: NN INT FK&lt;br style=&quot;font-size: 11px;&quot;&gt;" style="text;strokeColor=none;fillColor=none;spacingLeft=4;spacingRight=4;overflow=hidden;rotatable=0;points=[[0,0.5],[1,0.5]];portConstraint=eastwest;fontSize=11;whiteSpace=wrap;html=1;" vertex="1" parent="A6NE80T4TAQlHc2OVtD5-47">
          <mxGeometry y="128" width="160" height="30" as="geometry" />
        </mxCell>
        <mxCell id="00EKu0Gm5jGO197i8THi-13" value="" style="line;strokeWidth=1;rotatable=0;dashed=0;labelPosition=right;align=left;verticalAlign=middle;spacingTop=0;spacingLeft=6;points=[];portConstraint=eastwest;fontSize=11;" vertex="1" parent="A6NE80T4TAQlHc2OVtD5-47">
          <mxGeometry y="158" width="160" height="10" as="geometry" />
        </mxCell>
        <mxCell id="A6NE80T4TAQlHc2OVtD5-54" value="description: TEXT" style="text;align=left;verticalAlign=top;spacingLeft=4;spacingRight=4;overflow=hidden;rotatable=0;points=[[0,0.5],[1,0.5]];portConstraint=eastwest;whiteSpace=wrap;html=1;fontSize=11;" parent="A6NE80T4TAQlHc2OVtD5-47" vertex="1">
          <mxGeometry y="168" width="160" height="26" as="geometry" />
        </mxCell>
        <mxCell id="00EKu0Gm5jGO197i8THi-15" value="" style="line;strokeWidth=1;rotatable=0;dashed=0;labelPosition=right;align=left;verticalAlign=middle;spacingTop=0;spacingLeft=6;points=[];portConstraint=eastwest;" vertex="1" parent="A6NE80T4TAQlHc2OVtD5-47">
          <mxGeometry y="194" width="160" height="10" as="geometry" />
        </mxCell>
        <mxCell id="00EKu0Gm5jGO197i8THi-14" value="z_only: NN TINYINT" style="text;strokeColor=none;fillColor=none;spacingLeft=4;spacingRight=4;overflow=hidden;rotatable=0;points=[[0,0.5],[1,0.5]];portConstraint=eastwest;fontSize=12;whiteSpace=wrap;html=1;" vertex="1" parent="A6NE80T4TAQlHc2OVtD5-47">
          <mxGeometry y="204" width="160" height="30" as="geometry" />
        </mxCell>
        <mxCell id="A6NE80T4TAQlHc2OVtD5-56" value="1" style="text;html=1;align=center;verticalAlign=middle;whiteSpace=wrap;rounded=0;fontSize=11;" parent="1" vertex="1">
          <mxGeometry x="580" y="460" width="20" height="20" as="geometry" />
        </mxCell>
        <mxCell id="A6NE80T4TAQlHc2OVtD5-57" value="N&lt;br style=&quot;font-size: 11px;&quot;&gt;" style="text;html=1;align=center;verticalAlign=middle;whiteSpace=wrap;rounded=0;fontSize=11;" parent="1" vertex="1">
          <mxGeometry x="770" y="560" width="20" height="20" as="geometry" />
        </mxCell>
        <mxCell id="A6NE80T4TAQlHc2OVtD5-60" value="1&lt;br style=&quot;font-size: 11px;&quot;&gt;" style="text;html=1;align=center;verticalAlign=middle;whiteSpace=wrap;rounded=0;fontSize=11;" parent="1" vertex="1">
          <mxGeometry x="394" y="450" width="20" height="20" as="geometry" />
        </mxCell>
        <mxCell id="A6NE80T4TAQlHc2OVtD5-61" value="N" style="text;html=1;align=center;verticalAlign=middle;whiteSpace=wrap;rounded=0;fontSize=11;" parent="1" vertex="1">
          <mxGeometry x="170" y="630" width="20" height="20" as="geometry" />
        </mxCell>
        <mxCell id="FE76Vu3ZwONMEtlXTHDQ-9" value="" style="endArrow=none;html=1;rounded=0;entryX=0;entryY=0.5;entryDx=0;entryDy=0;exitX=0.5;exitY=0;exitDx=0;exitDy=0;fontSize=11;" parent="1" source="A6NE80T4TAQlHc2OVtD5-1" target="A6NE80T4TAQlHc2OVtD5-50" edge="1">
          <mxGeometry width="50" height="50" relative="1" as="geometry">
            <mxPoint x="510" y="670" as="sourcePoint" />
            <mxPoint x="560" y="620" as="targetPoint" />
            <Array as="points">
              <mxPoint x="170" y="473" />
            </Array>
          </mxGeometry>
        </mxCell>
        <mxCell id="FE76Vu3ZwONMEtlXTHDQ-12" value="" style="endArrow=none;html=1;rounded=0;entryX=0.99;entryY=0.81;entryDx=0;entryDy=0;exitX=0.5;exitY=0;exitDx=0;exitDy=0;entryPerimeter=0;fontSize=11;" parent="1" source="A6NE80T4TAQlHc2OVtD5-29" target="A6NE80T4TAQlHc2OVtD5-50" edge="1">
          <mxGeometry width="50" height="50" relative="1" as="geometry">
            <mxPoint x="180" y="660" as="sourcePoint" />
            <mxPoint x="424" y="483" as="targetPoint" />
            <Array as="points">
              <mxPoint x="770" y="480" />
            </Array>
          </mxGeometry>
        </mxCell>
      </root>
    </mxGraphModel>
  </diagram>
</mxfile>
